<?xml version="1.0" standalone="no"?><!DOCTYPE svg PUBLIC "-//W3C//DTD SVG 1.1//EN" "http://www.w3.org/Graphics/SVG/1.1/DTD/svg11.dtd"><svg t="1582549129074" class="icon" viewBox="0 0 1024 1024" version="1.1" xmlns="http://www.w3.org/2000/svg" p-id="6203" xmlns:xlink="http://www.w3.org/1999/xlink" width="48" height="48"><defs><style type="text/css"></style></defs><path d="M750.933333 394.453333a25.6 25.6 0 0 1 12.16 3.072l119.466667 64.554667a25.6 25.6 0 0 1 13.44 22.528v56.234667a8.533333 8.533333 0 0 1-12.373333 7.68L810.666667 512v298.666667c0 58.88-57.301333 106.666667-128 106.666666s-128-47.786667-128-106.666666 57.301333-106.666667 128-106.666667c14.976 0 29.354667 2.133333 42.709333 6.101333L725.333333 420.053333a25.6 25.6 0 0 1 25.6-25.6zM436.48 725.333333c11.434667 0 15.573333 1.194667 19.754667 3.413334a23.253333 23.253333 0 0 1 9.685333 9.685333c2.218667 4.181333 3.413333 8.32 3.413333 19.712v19.712c0 11.392-1.194667 15.530667-3.413333 19.712a23.253333 23.253333 0 0 1-9.685333 9.685333c-4.181333 2.218667-8.32 3.413333-19.712 3.413334H160.810667c-11.392 0-15.530667-1.194667-19.712-3.413334a23.253333 23.253333 0 0 1-9.685334-9.685333c-2.218667-4.181333-3.413333-8.32-3.413333-19.712v-19.712c0-11.392 1.194667-15.530667 3.413333-19.712a23.253333 23.253333 0 0 1 9.685334-9.685333c4.181333-2.218667 8.32-3.413333 19.712-3.413334h275.712z m170.666667-256c11.434667 0 15.573333 1.194667 19.754666 3.413334a23.253333 23.253333 0 0 1 9.685334 9.685333c2.218667 4.181333 3.413333 8.32 3.413333 19.712v19.712c0 11.392-1.194667 15.530667-3.413333 19.712a23.253333 23.253333 0 0 1-9.685334 9.685333c-4.181333 2.218667-8.32 3.413333-19.712 3.413334H160.810667c-11.392 0-15.530667-1.194667-19.712-3.413334a23.253333 23.253333 0 0 1-9.685334-9.685333c-2.218667-4.181333-3.413333-8.32-3.413333-19.712v-19.712c0-11.392 1.194667-15.530667 3.413333-19.712a23.253333 23.253333 0 0 1 9.685334-9.685333c4.181333-2.218667 8.32-3.413333 19.712-3.413334h446.378666z m170.666666-256c11.434667 0 15.573333 1.194667 19.754667 3.413334a23.253333 23.253333 0 0 1 9.685333 9.685333c2.218667 4.181333 3.413333 8.32 3.413334 19.712v19.712c0 11.392-1.194667 15.530667-3.413334 19.712a23.253333 23.253333 0 0 1-9.685333 9.685333c-4.181333 2.218667-8.32 3.413333-19.712 3.413334H160.810667c-11.392 0-15.530667-1.194667-19.712-3.413334a23.253333 23.253333 0 0 1-9.685334-9.685333C129.194667 281.386667 128 277.248 128 265.856v-19.712c0-11.392 1.194667-15.530667 3.413333-19.712a23.253333 23.253333 0 0 1 9.685334-9.685333c4.181333-2.218667 8.32-3.413333 19.712-3.413334h617.045333z" fill="#000000" p-id="6204"></path></svg>