<?xml version="1.0" standalone="no"?><!DOCTYPE svg PUBLIC "-//W3C//DTD SVG 1.1//EN" "http://www.w3.org/Graphics/SVG/1.1/DTD/svg11.dtd"><svg t="1582552615382" class="icon" viewBox="0 0 1024 1024" version="1.1" xmlns="http://www.w3.org/2000/svg" p-id="4273" width="32" height="32" xmlns:xlink="http://www.w3.org/1999/xlink"><defs><style type="text/css"></style></defs><path d="M606.08 878.72H323.2c-67.84 0-122.88-55.04-122.88-122.88V430.72c0-46.72 23.04-92.16 60.8-117.76l178.56-147.84 1.92-1.92c27.52-19.2 65.28-21.76 98.56-5.76 30.72 14.72 50.56 41.6 53.12 72.32 0 3.2 0 7.04-0.64 10.24l-21.12 88.32 167.04 0.64c41.6 0 80.64 17.92 107.52 49.92 26.88 32 38.4 73.6 31.36 114.56 0 1.92-0.64 3.2-1.28 5.12L798.08 736c-24.96 85.12-103.04 142.72-192 142.72zM479.36 215.04L300.8 363.52c-0.64 0.64-1.92 1.28-2.56 1.92-20.48 14.08-33.28 39.04-33.28 65.28v325.12c0 32.64 26.24 58.88 58.88 58.88h282.88c61.44 0 114.56-39.68 131.84-97.92v-0.64l77.44-234.88c3.2-21.76-3.2-43.52-17.92-60.16-14.72-17.28-36.48-27.52-58.88-27.52l-207.36-0.64c-9.6 0-19.2-4.48-24.96-12.16s-8.32-17.92-5.76-26.88l28.8-120.96c-3.2-9.6-12.8-14.72-16-16-12.16-7.04-25.6-7.04-34.56-1.92z m368 273.28z" fill="#515151" p-id="4274"></path></svg>